<?xml version="1.0" encoding="UTF-8" standalone="no"?>
<svg
   version="1.1"
   width="256"
   height="256"
   viewBox="0 0 256 256"
   xml:space="preserve"
   id="svg181"
   sodipodi:docname="settings.svg"
   inkscape:version="1.2.1 (9c6d41e410, 2022-07-14)"
   xmlns:inkscape="http://www.inkscape.org/namespaces/inkscape"
   xmlns:sodipodi="http://sodipodi.sourceforge.net/DTD/sodipodi-0.dtd"
   xmlns="http://www.w3.org/2000/svg"
   xmlns:svg="http://www.w3.org/2000/svg"><sodipodi:namedview
   id="namedview183"
   pagecolor="#ffffff"
   bordercolor="#000000"
   borderopacity="0.25"
   inkscape:showpageshadow="2"
   inkscape:pageopacity="0.0"
   inkscape:pagecheckerboard="0"
   inkscape:deskcolor="#d1d1d1"
   showgrid="false"
   inkscape:zoom="3.2695312"
   inkscape:cx="128.15293"
   inkscape:cy="128.15293"
   inkscape:window-width="1920"
   inkscape:window-height="1017"
   inkscape:window-x="-8"
   inkscape:window-y="-8"
   inkscape:window-maximized="1"
   inkscape:current-layer="svg181" />

<defs
   id="defs175">
</defs>
<g
   style="stroke:none;stroke-width:0;stroke-dasharray:none;stroke-linecap:butt;stroke-linejoin:miter;stroke-miterlimit:10;fill:#ffffff;fill-rule:nonzero;opacity:1"
   transform="translate(1.4065934065934016 1.4065934065934016) scale(2.81 2.81)"
   id="g179">
	<path
   d="M 88.568 54.357 L 88.568 54.357 c -8.337 -3.453 -8.337 -15.262 0 -18.715 h 0 c 1.183 -0.49 1.745 -1.847 1.255 -3.03 l -4.369 -10.547 c -0.49 -1.183 -1.847 -1.745 -3.03 -1.255 h 0 c -8.337 3.453 -16.687 -4.897 -13.233 -13.233 v 0 c 0.49 -1.183 -0.072 -2.54 -1.255 -3.03 L 57.388 0.177 c -1.183 -0.49 -2.54 0.072 -3.03 1.255 c -3.453 8.337 -15.262 8.337 -18.715 0 c -0.49 -1.183 -1.847 -1.745 -3.03 -1.255 L 22.065 4.546 c -1.183 0.49 -1.745 1.847 -1.255 3.03 c 3.453 8.337 -4.897 16.687 -13.234 13.234 c -1.183 -0.49 -2.54 0.072 -3.03 1.255 L 0.177 32.612 c -0.49 1.183 0.072 2.54 1.255 3.03 l 0 0 c 8.337 3.453 8.337 15.262 0 18.715 l 0 0 c -1.183 0.49 -1.745 1.847 -1.255 3.03 l 4.369 10.547 c 0.49 1.183 1.847 1.745 3.03 1.255 l 0 0 c 8.337 -3.453 16.687 4.897 13.233 13.234 v 0 c -0.49 1.183 0.072 2.54 1.255 3.03 l 10.547 4.369 c 1.183 0.49 2.54 -0.072 3.03 -1.255 v 0 c 3.453 -8.337 15.262 -8.337 18.715 0 v 0 c 0.49 1.183 1.847 1.745 3.03 1.255 l 10.547 -4.369 c 1.183 -0.49 1.745 -1.847 1.255 -3.03 v 0 c -3.453 -8.337 4.897 -16.687 13.234 -13.233 c 1.183 0.49 2.54 -0.072 3.03 -1.255 l 4.369 -10.547 C 90.313 56.204 89.751 54.848 88.568 54.357 z M 45 64.052 c -10.522 0 -19.052 -8.53 -19.052 -19.052 c 0 -10.522 8.53 -19.052 19.052 -19.052 S 64.052 34.478 64.052 45 C 64.052 55.522 55.522 64.052 45 64.052 z"
   style="stroke:none;stroke-width:1;stroke-dasharray:none;stroke-linecap:butt;stroke-linejoin:miter;stroke-miterlimit:10;fill:#ffffff;fill-rule:nonzero;opacity:1"
   transform=" matrix(1 0 0 1 0 0) "
   stroke-linecap="round"
   id="path177" />
</g>
</svg>
